<?xml version="1.0" encoding="utf-8"?>
<!-- Generator: Adobe Illustrator 27.5.0, SVG Export Plug-In . SVG Version: 6.00 Build 0)  -->
<svg version="1.1" xmlns="http://www.w3.org/2000/svg" xmlns:xlink="http://www.w3.org/1999/xlink" x="0px" y="0px"
	 viewBox="0 0 500 500" style="enable-background:new 0 0 500 500;" xml:space="preserve">
<g id="BACKGROUND">
	<rect style="fill:#FFFFFF;" width="500" height="500"/>
</g>
<g id="OBJECTS">
	<g>
		<g>
			<text transform="matrix(1 0 0 1 65.6411 213.7808)" style="font-family:'Montserrat-ExtraBold'; font-size:26.3904px;">THE LOGO</text>
		</g>
		
			<text transform="matrix(1 0 0 1 73.6138 231.5776)" style="fill:#0A2240; font-family:'Montserrat-Medium'; font-size:10.3476px; letter-spacing:4;">TAGLINE HERE</text>
		<path d="M186.128,118.284c0-7.115-5.788-12.903-12.903-12.903h-57.358c1.359-8.193,8.476-14.467,17.049-14.467h12.592h10.626
			h17.091c7.115,0,12.903-5.788,12.903-12.903c0-7.114-5.788-12.902-12.903-12.902h-17.091h-10.626h-15.538
			c-22.222,0-40.301,18.079-40.301,40.301v5.641h11.396h1.936h70.226c3.989,0,7.234,3.245,7.234,7.234
			c0,3.988-3.245,7.233-7.234,7.233h-70.226H89.668v5.641c0,22.222,18.079,40.301,40.301,40.301h15.538h10.626h17.091
			c7.115,0,12.903-5.788,12.903-12.903c0-7.114-5.788-12.902-12.903-12.902h-17.091h-10.626h-12.592
			c-8.573,0-15.69-6.274-17.049-14.468h57.358C180.34,131.186,186.128,125.398,186.128,118.284z M180.459,78.011
			c0,3.989-3.245,7.234-7.234,7.234h-6.414c1.403-2.065,2.225-4.555,2.225-7.234c0-2.679-0.822-5.169-2.225-7.233h6.414
			C177.214,70.778,180.459,74.023,180.459,78.011z M101.063,105.381h-5.727c0.015-19.083,15.545-34.604,34.632-34.604h15.538h10.626
			c3.988,0,7.233,3.245,7.233,7.233c0,3.989-3.245,7.234-7.233,7.234h-10.626h-12.592c-11.706,0-21.388,8.803-22.789,20.136h-7.127
			H101.063z M180.459,158.557c0,3.989-3.245,7.234-7.234,7.234h-6.414c1.403-2.065,2.225-4.555,2.225-7.234
			c0-2.679-0.822-5.169-2.225-7.233h6.414C177.214,151.323,180.459,154.568,180.459,158.557z M132.915,151.323h12.592h10.626
			c3.988,0,7.233,3.245,7.233,7.233c0,3.989-3.245,7.234-7.233,7.234h-10.626h-15.538c-19.087,0-34.617-15.52-34.632-34.604h7.663
			h7.127C111.528,142.519,121.21,151.323,132.915,151.323z"/>
	</g>
	<g>
		<g>
			<text transform="matrix(1 0 0 1 288.0361 213.7808)" style="font-family:'Montserrat-ExtraBold'; font-size:26.3904px;">THE LOGO</text>
		</g>
		
			<text transform="matrix(1 0 0 1 296.0088 231.5776)" style="fill:#0A2240; font-family:'Montserrat-Medium'; font-size:10.3476px; letter-spacing:4;">TAGLINE HERE</text>
		<g>
			<path d="M390.544,65.794h-34.63c-3.744,0-6.779,3.035-6.779,6.779v10.403c0,0,22.663,0.008,34.839,0.025
				c4.164,0.006,7.528,3.383,7.528,7.546h10.962V78.941v-1.226C402.464,71.131,397.127,65.794,390.544,65.794z"/>
			<path d="M390.544,169.333c6.584,0,11.921-5.337,11.921-11.921v-1.226v-11.605h-10.962c0,4.164-3.364,7.541-7.528,7.547
				c-12.176,0.016-34.839,0.025-34.839,0.025v10.402c0,3.744,3.035,6.779,6.779,6.779H390.544z"/>
			<path d="M326.12,152.152h23.015V125.79h10.92c1.019,0,6.575,0.291,9.05,2.038c2.184,1.456,3.349,2.913,4.222,5.387h3.534
				c3.766,0,6.819-3.053,6.819-6.819v-16.833c0-3.766-3.053-6.819-6.819-6.819h-3.534c-0.874,2.475-2.039,3.931-4.222,5.387
				c-2.475,1.747-8.032,2.038-9.05,2.038h-11.066v-0.833h0.146V82.975H326.12c-4.417,0-7.998,3.581-7.998,7.998v53.181
				C318.122,148.571,321.703,152.152,326.12,152.152z"/>
		</g>
	</g>
	<g>
		<g>
			<text transform="matrix(1 0 0 1 288.0361 423.1426)" style="font-family:'Montserrat-ExtraBold'; font-size:26.3904px;">THE LOGO</text>
		</g>
		
			<text transform="matrix(1 0 0 1 296.0088 440.9395)" style="fill:#0A2240; font-family:'Montserrat-Medium'; font-size:10.3476px; letter-spacing:4;">TAGLINE HERE</text>
		<g>
			<path d="M388.919,353.331h-34.615c3.739,9.799,1.964,19.464,0.866,23.62h59.408C413.493,363.745,402.399,353.331,388.919,353.331
				z"/>
			<path d="M402.854,339.541c6.512,0,11.81-5.298,11.81-11.81c0-6.512-5.298-11.81-11.81-11.81h-69.517v17.141
				c4.355,1.895,7.932,4.091,10.854,6.479H402.854z"/>
			<path d="M414.577,278.586h-55.493c-13.481,0-24.575,10.414-25.659,23.62h55.494C402.399,302.206,413.493,291.792,414.577,278.586
				z"/>
			<path d="M342.993,351.205c-0.455-0.73-0.979-1.437-1.545-2.126c-1.518-1.847-3.438-3.539-5.883-4.966
				c-0.184-0.108-0.359-0.213-0.541-0.32c-1.226-0.721-2.406-1.43-3.537-2.126c-0.092-0.057-0.182-0.113-0.274-0.17
				c-0.729-0.45-1.437-0.895-2.126-1.334c-1.364-0.869-2.66-1.718-3.875-2.539c-12.916-8.73-17.568-14.612-17.568-14.612
				s-10.251,26.794,2.714,45.116c2.446,3.457,5.588,5.997,8.819,7.868c7.977,4.617,16.506,5.131,16.506,5.131
				s0.123-1.254-0.417-3.35c-0.637-2.473-2.199-6.117-5.985-10.267c-1.015-1.113-2.189-2.262-3.549-3.434
				c-3.111-2.681-5.466-5.315-7.252-7.798c-6.459-8.983-5.424-15.978-5.424-15.978s0.184,5.404,6.306,12.333
				c2.021,2.287,4.686,4.74,8.207,7.219c0.523,0.368,1.025,0.738,1.517,1.107c0.743,0.557,1.452,1.114,2.126,1.67
				c0.75,0.618,1.457,1.232,2.126,1.842c5.502,5.013,8.344,9.654,9.653,12.274c0.696,1.393,0.962,2.218,0.962,2.218
				s0.293-0.755,0.678-2.038c1.301-4.332,3.66-14.805-0.495-23.594C343.796,352.611,343.425,351.899,342.993,351.205z"/>
		</g>
	</g>
	<g>
		<g>
			<text transform="matrix(1 0 0 1 65.6411 423.1426)" style="font-family:'Montserrat-ExtraBold'; font-size:26.3904px;">THE LOGO</text>
		</g>
		
			<text transform="matrix(1 0 0 1 73.6138 440.9395)" style="fill:#0A2240; font-family:'Montserrat-Medium'; font-size:10.3476px; letter-spacing:4;">TAGLINE HERE</text>
		<g>
			<path d="M174.497,301.517h-58.338c-11.573,0-20.988,9.416-20.988,20.989c0,4.762,1.775,9.116,4.696,12.44l-0.008,0.007
				c0.377,0.43,0.782,0.838,1.199,1.233c0.007,0.007,0.014,0.013,0.021,0.019c0.257,0.244,0.515,0.487,0.785,0.715
				c0.113,0.096,0.235,0.178,0.351,0.271c0.108,0.087,0.22,0.17,0.329,0.254c0.321,0.247,0.648,0.487,0.984,0.714
				c0.146,0.098,0.295,0.19,0.443,0.283c0.306,0.194,0.617,0.382,0.935,0.559c0.197,0.109,0.397,0.21,0.597,0.312
				c0.24,0.122,0.478,0.246,0.722,0.357c0.041,0.019,0.084,0.034,0.125,0.052c0.245,0.109,0.493,0.21,0.743,0.309
				c0.256,0.102,0.514,0.201,0.775,0.292c0.277,0.096,0.556,0.182,0.837,0.265c0.252,0.074,0.505,0.146,0.761,0.21
				c0.285,0.071,0.572,0.134,0.86,0.192c0.271,0.054,0.544,0.103,0.819,0.146c0.954,0.149,1.92,0.238,2.895,0.238h3.203h4.723h7.468
				h35.231c7.162,0,12.988-5.827,12.988-12.989c0-7.161-5.827-12.988-12.988-12.988h-38.042c-8.182,0-14.846,6.567-15.031,14.706
				c1.592,0.435,3.524,0.726,5.652,0.615v-0.272c0-5.172,4.207-9.379,9.379-9.379h38.042c4.036,0,7.319,3.283,7.319,7.318
				c0,4.036-3.284,7.319-7.319,7.319h-35.231h-7.307h-4.883h-3.203c-0.833,0-1.657-0.085-2.466-0.239
				c-0.222-0.042-0.442-0.094-0.661-0.148c-0.119-0.029-0.24-0.052-0.358-0.085c-0.245-0.067-0.484-0.148-0.723-0.229
				c-0.127-0.043-0.256-0.08-0.381-0.126c-0.204-0.076-0.401-0.164-0.6-0.249c-0.159-0.068-0.32-0.131-0.476-0.205
				c-0.141-0.067-0.276-0.144-0.414-0.216c-0.208-0.108-0.417-0.214-0.62-0.333c-0.058-0.034-0.112-0.073-0.17-0.109
				c-0.291-0.178-0.578-0.364-0.855-0.564c0-0.001,0-0.001,0-0.002c-0.412-0.299-0.806-0.621-1.181-0.964
				c-0.003-0.003-0.007-0.006-0.01-0.009c-2.631-2.414-4.284-5.877-4.284-9.721c0-8.447,6.872-15.319,15.319-15.319h58.338
				c7.162,0,12.988-5.827,12.988-12.989c0-7.161-5.827-12.988-12.988-12.988h-56.184c-12.761,0-23.143,10.382-23.143,23.143h0.062
				c1.381-1.807,3.48-3.894,6.549-5.613c2.345-6.886,8.862-11.86,16.532-11.86h56.184c4.036,0,7.319,3.283,7.319,7.318
				C181.816,298.233,178.532,301.517,174.497,301.517z"/>
			<path d="M174.497,355.066h-47.876c-4.455,0-8.188-3.125-9.138-7.297c-1.802,0.038-3.912-0.09-5.837-0.648
				c0.725,7.628,7.162,13.615,14.976,13.615h47.876c4.036,0,7.319,3.283,7.319,7.318c0,4.036-3.284,7.319-7.319,7.319h-56.184
				c-9.635,0-17.474-7.838-17.474-17.473V343.74c-1.77-0.881-3.832-2.187-5.669-4.072v18.233c0,12.761,10.382,23.143,23.143,23.143
				h56.184c7.162,0,12.988-5.827,12.988-12.989C187.485,360.894,181.658,355.066,174.497,355.066z"/>
		</g>
	</g>
</g>
</svg>
